<svg width="320" height="109" viewBox="0 0 320 109" fill="none" xmlns="http://www.w3.org/2000/svg">
<path d="M9.18403 34.1678C9.27985 33.9089 9.6461 33.9089 9.74192 34.1678L10.4197 35.9995C10.4498 36.0809 10.514 36.1451 10.5954 36.1752L12.427 36.853C12.686 36.9488 12.686 37.315 12.427 37.4109L10.5954 38.0886C10.514 38.1188 10.4498 38.1829 10.4197 38.2644L9.74192 40.096C9.6461 40.3549 9.27985 40.3549 9.18403 40.096L8.50626 38.2644C8.47614 38.1829 8.41195 38.1188 8.33053 38.0886L6.4989 37.4109C6.23995 37.315 6.23995 36.9488 6.4989 36.853L8.33053 36.1752C8.41195 36.1451 8.47614 36.0809 8.50626 35.9995L9.18403 34.1678Z" fill="white" fill-opacity="0.08"/>
<path d="M70.7958 99.4032C70.8917 99.1442 71.2579 99.1442 71.3537 99.4032L72.0315 101.235C72.0616 101.316 72.1258 101.38 72.2072 101.411L74.0389 102.088C74.2978 102.184 74.2978 102.55 74.0389 102.646L72.2072 103.324C72.1258 103.354 72.0616 103.418 72.0315 103.5L71.3537 105.331C71.2579 105.59 70.8917 105.59 70.7958 105.331L70.1181 103.5C70.088 103.418 70.0238 103.354 69.9423 103.324L68.1107 102.646C67.8518 102.55 67.8518 102.184 68.1107 102.088L69.9423 101.411C70.0238 101.38 70.088 101.316 70.1181 101.235L70.7958 99.4032Z" fill="white" fill-opacity="0.08"/>
<g filter="url(#filter0_d_330_1236)">
<path d="M97.3735 15.4423C97.4693 15.1833 97.8356 15.1833 97.9314 15.4423L98.6091 17.2739C98.6393 17.3553 98.7035 17.4195 98.7849 17.4496L100.617 18.1274C100.875 18.2232 100.875 18.5895 100.617 18.6853L98.7849 19.363C98.7035 19.3932 98.6393 19.4574 98.6091 19.5388L97.9314 21.3704C97.8356 21.6294 97.4693 21.6294 97.3735 21.3704L96.6957 19.5388C96.6656 19.4574 96.6014 19.3932 96.52 19.363L94.6884 18.6853C94.4294 18.5895 94.4294 18.2232 94.6884 18.1274L96.52 17.4496C96.6014 17.4195 96.6656 17.3553 96.6957 17.2739L97.3735 15.4423Z" fill="white"/>
</g>
<path d="M232.074 22.6913C232.17 22.4323 232.536 22.4323 232.632 22.6913L233.31 24.5229C233.34 24.6043 233.404 24.6685 233.486 24.6986L235.317 25.3764C235.576 25.4722 235.576 25.8385 235.317 25.9343L233.486 26.6121C233.404 26.6422 233.34 26.7064 233.31 26.7878L232.632 28.6194C232.536 28.8784 232.17 28.8784 232.074 28.6194L231.396 26.7878C231.366 26.7064 231.302 26.6422 231.221 26.6121L229.389 25.9343C229.13 25.8385 229.13 25.4722 229.389 25.3764L231.221 24.6986C231.302 24.6685 231.366 24.6043 231.396 24.5229L232.074 22.6913Z" fill="white" fill-opacity="0.08"/>
<path d="M321.472 88.5311C321.567 88.2722 321.934 88.2722 322.03 88.5311L322.707 90.3628C322.737 90.4442 322.802 90.5084 322.883 90.5385L324.715 91.2163C324.974 91.3121 324.974 91.6783 324.715 91.7742L322.883 92.4519C322.802 92.482 322.737 92.5462 322.707 92.6276L322.03 94.4593C321.934 94.7182 321.567 94.7182 321.472 94.4593L320.794 92.6276C320.764 92.5462 320.7 92.482 320.618 92.4519L318.786 91.7742C318.528 91.6783 318.528 91.3121 318.786 91.2163L320.618 90.5385C320.7 90.5084 320.764 90.4442 320.794 90.3628L321.472 88.5311Z" fill="white" fill-opacity="0.08"/>
<g filter="url(#filter1_d_330_1236)">
<path d="M255.631 82.4911C255.727 82.2321 256.093 82.2321 256.189 82.4911L256.867 84.3227C256.897 84.4041 256.961 84.4683 257.043 84.4984L258.874 85.1762C259.133 85.272 259.133 85.6383 258.874 85.7341L257.043 86.4119C256.961 86.442 256.897 86.5062 256.867 86.5876L256.189 88.4192C256.093 88.6782 255.727 88.6782 255.631 88.4192L254.954 86.5876C254.923 86.5062 254.859 86.442 254.778 86.4119L252.946 85.7341C252.687 85.6383 252.687 85.272 252.946 85.1762L254.778 84.4984C254.859 84.4683 254.923 84.4041 254.954 84.3227L255.631 82.4911Z" fill="white"/>
</g>
<path d="M173.482 43.8319C173.578 43.573 173.944 43.573 174.04 43.8319L174.718 45.6635C174.748 45.745 174.812 45.8091 174.894 45.8393L176.725 46.517C176.984 46.6129 176.984 46.9791 176.725 47.0749L174.894 47.7527C174.812 47.7828 174.748 47.847 174.718 47.9284L174.04 49.7601C173.944 50.019 173.578 50.019 173.482 49.7601L172.805 47.9284C172.774 47.847 172.71 47.7828 172.629 47.7527L170.797 47.0749C170.538 46.9791 170.538 46.6129 170.797 46.517L172.629 45.8393C172.71 45.8091 172.774 45.745 172.805 45.6635L173.482 43.8319Z" fill="white" fill-opacity="0.08"/>
<path d="M306.371 9.40222C306.466 9.14327 306.833 9.14327 306.928 9.40222L307.606 11.2339C307.636 11.3153 307.701 11.3795 307.782 11.4096L309.614 12.0873C309.873 12.1832 309.873 12.5494 309.614 12.6452L307.782 13.323C307.701 13.3531 307.636 13.4173 307.606 13.4987L306.928 15.3304C306.833 15.5893 306.466 15.5893 306.371 15.3304L305.693 13.4987C305.663 13.4173 305.598 13.3531 305.517 13.323L303.685 12.6452C303.426 12.5494 303.426 12.1832 303.685 12.0873L305.517 11.4096C305.598 11.3795 305.663 11.3153 305.693 11.2339L306.371 9.40222Z" fill="white" fill-opacity="0.08"/>
<defs>
<filter id="filter0_d_330_1236" x="86.4941" y="7.24805" width="22.3164" height="22.3164" filterUnits="userSpaceOnUse" color-interpolation-filters="sRGB">
<feFlood flood-opacity="0" result="BackgroundImageFix"/>
<feColorMatrix in="SourceAlpha" type="matrix" values="0 0 0 0 0 0 0 0 0 0 0 0 0 0 0 0 0 0 127 0" result="hardAlpha"/>
<feOffset/>
<feGaussianBlur stdDeviation="4"/>
<feComposite in2="hardAlpha" operator="out"/>
<feColorMatrix type="matrix" values="0 0 0 0 1 0 0 0 0 1 0 0 0 0 1 0 0 0 0.5 0"/>
<feBlend mode="normal" in2="BackgroundImageFix" result="effect1_dropShadow_330_1236"/>
<feBlend mode="normal" in="SourceGraphic" in2="effect1_dropShadow_330_1236" result="shape"/>
</filter>
<filter id="filter1_d_330_1236" x="244.752" y="74.2969" width="22.3164" height="22.3164" filterUnits="userSpaceOnUse" color-interpolation-filters="sRGB">
<feFlood flood-opacity="0" result="BackgroundImageFix"/>
<feColorMatrix in="SourceAlpha" type="matrix" values="0 0 0 0 0 0 0 0 0 0 0 0 0 0 0 0 0 0 127 0" result="hardAlpha"/>
<feOffset/>
<feGaussianBlur stdDeviation="4"/>
<feComposite in2="hardAlpha" operator="out"/>
<feColorMatrix type="matrix" values="0 0 0 0 1 0 0 0 0 1 0 0 0 0 1 0 0 0 0.5 0"/>
<feBlend mode="normal" in2="BackgroundImageFix" result="effect1_dropShadow_330_1236"/>
<feBlend mode="normal" in="SourceGraphic" in2="effect1_dropShadow_330_1236" result="shape"/>
</filter>
</defs>
</svg>
