<svg width="16" height="18" viewBox="0 0 16 18" fill="none" xmlns="http://www.w3.org/2000/svg">
<path d="M7.73832 0C4.90194 0 2.57944 2.31529 2.57944 5.14286V7.71429C1.14866 7.71429 0 8.85938 0 10.2857V16.7143C0 17.4275 0.574328 18 1.28972 18H14.1869C14.9023 18 15.4766 17.4275 15.4766 16.7143V10.2857C15.4766 8.85938 14.328 7.71429 12.8972 7.71429V5.14286C12.8972 2.31529 10.5747 0 7.73832 0ZM7.73832 2.57143C9.18925 2.57143 10.3178 3.69643 10.3178 5.14286V7.71429H5.15888V5.14286C5.15888 3.69643 6.28738 2.57143 7.73832 2.57143Z" fill="#F3E7FF" fill-opacity="0.5"/>
</svg>
