<svg width="225" height="150" viewBox="0 0 225 150" fill="none" xmlns="http://www.w3.org/2000/svg">
<g filter="url(#filter0_d_330_1279)">
<path d="M113.211 25.4398C112.918 24.8534 112.082 24.8534 111.789 25.4398L101.245 46.5828C101.135 46.8033 101.133 47.0625 101.241 47.2842L103.453 51.8403C103.592 52.1266 103.546 52.4682 103.338 52.7084L100.069 56.4669C99.8206 56.753 99.4043 56.8234 99.0753 56.6349L90.2908 51.6024C89.9256 51.3932 89.787 50.9354 89.9748 50.5587L90.8277 48.8486C90.9733 48.5567 90.9256 48.2056 90.7076 47.963L81.3858 37.5953C80.861 37.0117 79.8977 37.4618 80.0088 38.2388L84.2268 67.7363C84.2827 68.1276 84.6178 68.4182 85.0131 68.4182H100.265C100.739 68.4182 101.105 68.8303 101.083 69.3035C101.075 69.4849 101.07 69.6672 101.07 69.8505C101.07 70.0339 101.075 70.2162 101.083 70.3975C101.105 70.8708 100.739 71.2829 100.265 71.2829H85.6505C85.1671 71.2829 84.7958 71.7111 84.8643 72.1897L86.8917 86.3573C86.9476 86.7485 87.2827 87.039 87.6779 87.039H137.322C137.717 87.039 138.052 86.7484 138.108 86.3571L140.133 72.1896C140.202 71.711 139.83 71.2829 139.347 71.2829H124.735C124.261 71.2829 123.895 70.8708 123.917 70.3975C123.925 70.2162 123.93 70.0339 123.93 69.8505C123.93 69.6672 123.925 69.4849 123.917 69.3035C123.895 68.8303 124.261 68.4182 124.735 68.4182H139.987C140.382 68.4182 140.717 68.1276 140.773 67.7363L144.991 38.2388C145.102 37.4618 144.139 37.0117 143.614 37.5953L134.292 47.963C134.074 48.2056 134.027 48.5567 134.172 48.8486L135.025 50.5587C135.213 50.9354 135.074 51.3932 134.709 51.6024L125.925 56.6346C125.596 56.8232 125.179 56.7527 124.931 56.4662L121.721 52.7692C121.515 52.5322 121.468 52.1963 121.601 51.912L123.767 47.2802C123.87 47.0606 123.867 46.8061 123.759 46.5892L113.211 25.4398Z" fill="url(#paint0_linear_330_1279)"/>
</g>
<defs>
<filter id="filter0_d_330_1279" x="0" y="-55" width="225" height="222.039" filterUnits="userSpaceOnUse" color-interpolation-filters="sRGB">
<feFlood flood-opacity="0" result="BackgroundImageFix"/>
<feColorMatrix in="SourceAlpha" type="matrix" values="0 0 0 0 0 0 0 0 0 0 0 0 0 0 0 0 0 0 127 0" result="hardAlpha"/>
<feOffset/>
<feGaussianBlur stdDeviation="40"/>
<feComposite in2="hardAlpha" operator="out"/>
<feColorMatrix type="matrix" values="0 0 0 0 1 0 0 0 0 1 0 0 0 0 1 0 0 0 0.25 0"/>
<feBlend mode="normal" in2="BackgroundImageFix" result="effect1_dropShadow_330_1279"/>
<feBlend mode="normal" in="SourceGraphic" in2="effect1_dropShadow_330_1279" result="shape"/>
</filter>
<linearGradient id="paint0_linear_330_1279" x1="112.451" y1="26.4323" x2="112.451" y2="85.3612" gradientUnits="userSpaceOnUse">
<stop stop-color="white"/>
<stop offset="1" stop-color="#ACA1F8"/>
</linearGradient>
</defs>
</svg>
